# xmcd
#
# Track frame offsets:
#	150
#	26283
#	53404
#	72681
#	98342
#	117347
#	128585
#	141920
#	158092
#
# Disc length: 3282 seconds
#
# Revision: 0
# Processed by: cddbd v1.5.2PL0 Copyright (c) Steve Scherf et al.
# Submitted via: audiograbber 1.83.01
#
DISCID=6d0cd009
DTITLE=Driftin - Geysir
DYEAR=2009
DGENRE=Blues
TTITLE0=Geysir Jam
TTITLE1=Swing Blues in A
TTITLE2=Folsom Prison Blues
TTITLE3=Kapellmeister Blues
TTITLE4=Cheap Sunglasses
TTITLE5=Steppin´ Out
TTITLE6=Walking on Sunset
TTITLE7=Baby what you want me to do
TTITLE8=I´m flying - Easy
EXTD=
EXTT0=
EXTT1=
EXTT2=
EXTT3=
EXTT4=
EXTT5=
EXTT6=
EXTT7=
EXTT8=
PLAYORDER=
